PathFileType	4	(X/Y/Z)	Patient4_TMGait_0pt5_01_left_12.trc.trc
DataRate	CameraRate	NumFrames	NumMarkers	Units	OrigDataRate	OrigDataStartFrame	OrigNumFrames
76.502732240437	76.502732240437	4	33	mm	76.502732240437	89	       141
Frame#	Time	L.ASIS			Sacral			L.Shoulder			Chest			R.Shoulder			Neck			R.ASIS			R.Thigh.Superior			R.Thigh.Lateral			R.Thigh.Inferior			R.Patella			L.Thigh.Superior			L.Thigh.Lateral			L.Thigh.Inferior			L.Patella			L.Shank.Superior			L.Shank.Lateral			L.Shank.Inferior			R.Shank.Superior			R.Shank.Lateral			R.Shank.Inferior			R.Heel			R.Midfoot.Superior			R.Midfoot.Lateral			R.Toe			L.Heel			L.Midfoot.Lateral			L.Midfoot.Superior			L.Toe			L.Elbow			L.Wrist			R.Elbow			R.Wrist			
		X1	Y1	Z1	X2	Y2	Z2	X3	Y3	Z3	X4	Y4	Z4	X5	Y5	Z5	X6	Y6	Z6	X7	Y7	Z7	X8	Y8	Z8	X9	Y9	Z9	X10	Y10	Z10	X11	Y11	Z11	X12	Y12	Z12	X13	Y13	Z13	X14	Y14	Z14	X15	Y15	Z15	X16	Y16	Z16	X17	Y17	Z17	X18	Y18	Z18	X19	Y19	Z19	X20	Y20	Z20	X21	Y21	Z21	X22	Y22	Z22	X23	Y23	Z23	X24	Y24	Z24	X25	Y25	Z25	X26	Y26	Z26	X27	Y27	Z27	X28	Y28	Z28	X29	Y29	Z29	X30	Y30	Z30	X31	Y31	Z31	X32	Y32	Z32	X33	Y33	Z33	

89	17.180285714286	812.523606251312	958.624977974573	322.605825875918	590.067713734198	995.664922617548	467.492867745613	743.241256624751	1434.104611256196	294.474594432990	840.890483237167	1370.636644914554	461.629939639652	740.968448765175	1433.976917902366	632.160625498256	729.925210794892	1494.226906226373	446.500278171542	814.063318579597	944.027704575512	597.035632996264	873.502453977631	749.314067957155	572.855746021224	797.974369234471	635.943941784484	630.524855207165	883.588526882856	588.493147141652	555.711840701778	890.512458326089	500.951638163572	562.964593279705	837.873002132554	732.278892400208	350.862530138571	739.337411426253	624.286429973846	286.877632192364	813.690019286310	535.582835835728	349.454923969376	802.190974991837	453.245184137187	349.940701729409	741.198122951810	393.785771359044	344.335240211253	609.719873690903	330.329853380859	293.571919584173	609.696994977608	204.926455830028	357.317958957738	870.625645063354	411.141272498325	571.248115372003	804.367259199128	302.515016811131	629.198912864338	860.238734442545	210.947457553527	572.586015223938	741.218161391613	42.434070929980	535.373947147722	908.959150094438	98.328561281094	582.069619135497	819.819470554123	36.335127283024	615.945594523192	1027.757147283615	47.278256585109	617.361700802813	429.557790826757	104.943606109885	395.714550134309	497.516514168110	73.178862103053	318.008235117988	595.563093757170	107.929815952449	340.142181224994	698.639774794873	33.942365355392	317.819298905036	763.641604711768	1084.216264468107	162.181340550442	961.719126954602	913.235449373692	153.800143881774	673.112177229170	1087.284390210018	730.458749672162	756.249755191898	839.158982373697	739.361923399298	
90	17.193357142857	811.173446152714	959.547744951106	325.030541264734	589.789841763125	996.610977228785	471.296150989929	742.290624624245	1435.202785476096	297.710166778884	841.052644432955	1371.314941855932	464.052559152037	742.423780624905	1434.522371628902	635.208426082896	729.887529925437	1495.007208160341	449.880345452204	814.524014242748	944.757222043768	599.395724168682	872.105053471366	749.090357602310	575.672431711757	795.168201449781	636.274244708283	632.694488671262	880.342038538411	588.148194083856	557.871737995493	886.349149355736	500.744122268428	564.544593777572	842.164334228315	734.764042302643	353.371940827262	748.112204946178	624.102921116627	288.846059360511	825.642267557154	537.038907417991	351.199655893057	815.248290903479	453.242395870967	350.670323525034	751.856359580283	394.075596445990	345.233091667438	617.915838419221	336.005728190647	294.480561829981	613.554265739594	210.370096241787	357.293413536166	866.116171254339	411.061679289784	572.593319639409	799.565036048850	302.610233470797	630.326730881498	854.815235266523	210.926392230306	573.253550133744	735.046871198844	42.578361570814	535.690779404922	902.863712173206	98.523562264255	582.495681667104	813.641926447617	36.465120740787	616.294409276090	1021.607035293769	47.325876181308	617.718140618095	429.540834275527	119.805746326814	395.143380167898	495.509481273658	83.714851667136	317.624794967849	595.370911990724	112.434257057652	339.655579321034	692.664409984635	32.921879861974	317.939882662733	757.743972076564	1084.319976052407	167.083887794087	946.412104211803	902.738563284633	157.623810846751	681.857146766128	1086.221570609114	734.543188893392	776.738543405285	842.550841552757	741.574075596085	
91	17.206428571429	809.527446782720	960.202357814309	327.261577515024	589.261293438470	997.405435600324	475.110536155570	741.131145082731	1436.037278646550	300.802451364850	841.155133342987	1371.734232817577	466.237866425720	744.007446755407	1434.886048064865	638.108799551991	729.829117695892	1495.587069394961	453.104701735721	814.810048304734	945.310037568815	601.567712148642	870.439148215606	748.722937271341	578.251342839201	792.251197111981	636.467972824251	634.779170266248	876.879628930363	587.720732895149	559.806470999267	882.027692659378	500.433956381917	565.970269548515	846.501670521528	737.429010896951	355.818438688276	757.269471237411	624.123311815259	290.731721765276	837.882404869127	538.932164590018	353.062126764498	828.741831536600	453.753934126610	351.716320968025	763.178624050439	394.762439031711	346.323789757391	627.055006823084	342.067036709488	295.472907594604	618.279613102230	216.411490982214	357.472365646493	861.440528271301	410.868363210135	573.834512001399	794.588411759836	302.582851562169	631.332239940058	849.234878663856	210.794923461255	573.826485635127	728.728502435089	42.651690473812	535.922287659099	896.622321724484	98.594958043302	582.845297806651	807.298993003972	36.512419618024	616.578037410807	1015.305108386027	47.225567834551	618.044437048921	430.712371539736	135.492384173041	394.636662863904	494.597965850970	95.276660567259	317.305208251383	596.029469216119	117.726649658443	339.440054461719	687.304877309683	32.043178774178	318.191021100363	751.963962669569	1084.225366902257	171.906445165795	930.317347067103	892.306298236890	161.590382682375	690.748351232233	1085.345075561889	738.906423546709	797.690401963245	846.912019302519	743.741978057902	
92	17.219500000000	807.628929280134	960.575637298463	329.288970452759	588.494104675593	998.029403063312	478.886503405411	739.745775130959	1436.591494758192	303.716013604351	841.174898050692	1371.891937702470	468.162200997780	745.681995153031	1435.051941580725	640.841278076050	729.741857114182	1495.961595855764	456.143725256368	814.916563496938	945.675750433292	603.542805676352	868.562183805382	748.230415902825	580.524844071801	789.346732276154	636.538009173389	636.765030836540	873.298879283141	587.224833412352	561.482147231400	877.639724934014	500.016051144124	567.243151537566	850.755281714405	740.271942409825	358.212477081468	766.574818163257	624.436278730050	292.541591074241	850.100061054015	541.318392269684	355.042102549202	842.380952707835	454.852168506190	353.075607735145	774.910229435152	395.906352625145	347.605074082265	636.909383523222	348.392416704121	296.564529698407	623.812900928092	222.881083721380	357.869781657508	856.684686796923	410.554767719236	574.964026923065	789.519646043956	302.438661582799	632.235834813511	843.544666233649	210.547510644544	574.303263718482	722.268181713773	42.663679404513	536.082760725278	890.244009207004	98.547917315414	583.108544056682	800.802760851255	36.488815720307	616.800040476517	1008.865333124824	46.983333579535	618.318771031482	433.112350809279	151.395742011969	394.236289144821	494.938896643255	107.413185547501	317.088998441408	597.642399931013	123.661055746856	339.515869038846	682.941533824512	31.429169398064	318.587443129255	746.289069809314	1083.894143258723	176.629021431691	913.498892314480	882.096830338012	165.692768403918	699.782806263734	1084.636608152350	743.488745548786	818.949485834774	852.238271044662	745.811409167004	
